# xmcd
# Copyright (C) 1995-1998 Ti Kan
#
# Track frame offsets:
#       150
#       14988
#       29807
#       30680
#
# Disc length: 414 seconds
#
# Revision: 0
# Processed by: cddbd v1.5.1PL0 Copyright (c) Steve Scherf et al.
# Submitted via: CD-Transfer v1.0
#
DISCID=35019c04
DTITLE=Signorino Tj - 
DYEAR=05
DGENRE=
TTITLE0=Coffee On The Corner - Rro
TTITLE1=Coffee On The Corner
TTITLE2=Tj Id
TTITLE3=Tj Id2
EXTD=
EXTT0=
EXTT1=
EXTT2=
EXTT3=
PLAYORDER=
